<svg preserveAspectRatio="none" width="100%" height="100%" overflow="visible" style="display: block;" viewBox="0 0 22.6562 22.6562" fill="none" xmlns="http://www.w3.org/2000/svg">
<path id="Vector" d="M14.9531 11.3281C14.9531 12.0451 14.7405 12.7459 14.3422 13.3421C13.9439 13.9382 13.3777 14.4028 12.7154 14.6772C12.053 14.9516 11.3241 15.0233 10.6209 14.8835C9.91774 14.7436 9.27183 14.3984 8.76486 13.8914C8.2579 13.3844 7.91265 12.7385 7.77278 12.0353C7.63291 11.3321 7.70469 10.6033 7.97906 9.9409C8.25343 9.27852 8.71806 8.71237 9.31418 8.31405C9.91031 7.91573 10.6112 7.70312 11.3281 7.70312C12.2892 7.70422 13.2106 8.0865 13.8902 8.76608C14.5698 9.44566 14.952 10.3671 14.9531 11.3281ZM22.6562 6.34375V16.3125C22.6543 17.9944 21.9854 19.6068 20.7961 20.7961C19.6068 21.9854 17.9944 22.6543 16.3125 22.6562H6.34375C4.66187 22.6543 3.04942 21.9854 1.86015 20.7961C0.670874 19.6068 0.0019048 17.9944 0 16.3125V6.34375C0.0019048 4.66187 0.670874 3.04942 1.86015 1.86015C3.04942 0.670874 4.66187 0.0019048 6.34375 0H16.3125C17.9944 0.0019048 19.6068 0.670874 20.7961 1.86015C21.9854 3.04942 22.6543 4.66187 22.6562 6.34375ZM16.7656 11.3281C16.7656 10.2527 16.4467 9.2014 15.8492 8.30721C15.2518 7.41302 14.4025 6.71608 13.409 6.30453C12.4154 5.89298 11.3221 5.7853 10.2673 5.99511C9.21255 6.20491 8.24368 6.72278 7.48323 7.48323C6.72278 8.24368 6.20491 9.21255 5.99511 10.2673C5.7853 11.3221 5.89298 12.4154 6.30453 13.409C6.71608 14.4025 7.41302 15.2518 8.30721 15.8492C9.2014 16.4467 10.2527 16.7656 11.3281 16.7656C12.7697 16.764 14.1518 16.1906 15.1712 15.1712C16.1906 14.1518 16.764 12.7697 16.7656 11.3281ZM18.5781 5.4375C18.5781 5.16864 18.4984 4.90582 18.349 4.68227C18.1997 4.45872 17.9874 4.28449 17.739 4.1816C17.4906 4.07871 17.2172 4.05179 16.9535 4.10424C16.6899 4.1567 16.4476 4.28616 16.2575 4.47628C16.0674 4.66639 15.9379 4.90861 15.8855 5.1723C15.833 5.43599 15.86 5.70932 15.9629 5.95771C16.0657 6.2061 16.24 6.41841 16.4635 6.56778C16.6871 6.71715 16.9499 6.79688 17.2188 6.79688C17.5793 6.79687 17.925 6.65366 18.18 6.39872C18.4349 6.14379 18.5781 5.79803 18.5781 5.4375Z" fill="white"/>
</svg>
