<svg preserveAspectRatio="none" width="100%" height="100%" overflow="visible" style="display: block;" viewBox="0 0 111.035 111.035" fill="none" xmlns="http://www.w3.org/2000/svg">
<g id="Group">
<g id="Group_2">
<path id="Vector" d="M55.5163 111.035C24.9047 111.035 0 86.1278 0 55.5182C0 24.9087 24.9027 0 55.5163 0C86.1298 0 111.035 24.9027 111.035 55.5163C111.035 86.1298 86.1278 111.035 55.5163 111.035ZM55.5163 8.95005C29.8382 8.95005 8.94806 29.8402 8.94806 55.5182C8.94806 81.1963 29.8382 102.086 55.5163 102.086C81.1963 102.086 102.086 81.1983 102.086 55.5182C102.086 29.8402 81.1963 8.95005 55.5163 8.95005Z" fill="#545557"/>
</g>
<path id="Vector_2" d="M48.5774 57.4338L57.4337 48.5734C59.2596 46.7535 62.1061 46.608 64.1174 48.103C64.3705 48.1668 64.6097 48.2744 64.8071 48.4737L66.9917 50.6544C68.409 52.0717 70.7013 52.0717 72.1186 50.6544L78.2042 44.5668C79.6215 43.1555 79.6215 40.8632 78.2042 39.4439L73.8329 35.0746C68.413 29.6587 59.5985 29.6587 54.1826 35.0746L35.0805 54.1747C29.6626 59.5945 29.6626 68.413 35.0805 73.8269L39.4499 78.1963C40.8652 79.6135 43.1555 79.6135 44.5747 78.1963L50.6604 72.1106C52.0776 70.6974 52.0756 68.4011 50.6604 66.9878L48.4737 64.8031C48.2784 64.6038 48.1747 64.3646 48.1069 64.1114C46.6059 62.1061 46.7515 59.2557 48.5774 57.4338Z" fill="#545557"/>
</g>
</svg>
